<svg width="152" height="78" viewBox="0 0 152 78" fill="none" xmlns="http://www.w3.org/2000/svg">
<path d="M10.5042 76.099C9.73417 75.6883 9.1695 75.175 8.81017 74.559C8.50217 73.943 8.34817 73.327 8.34817 72.711C8.34817 71.941 8.52784 71.3507 8.88717 70.94C9.0925 70.6833 9.29784 70.5293 9.50317 70.478C9.75984 70.478 9.83684 70.6063 9.73417 70.863C9.58017 71.787 9.9395 72.6597 10.8122 73.481C11.7362 74.3537 12.5832 74.9183 13.3532 75.175C14.2772 75.4317 15.1242 75.56 15.8942 75.56C16.6642 75.56 17.4085 75.4573 18.1272 75.252C18.8972 75.098 19.6158 74.9183 20.2832 74.713C22.2852 73.943 24.2615 72.4287 26.2122 70.17C28.1628 67.9113 29.9595 65.3703 31.6022 62.547C33.7582 58.9537 35.8628 54.8727 37.9162 50.304C39.9695 45.684 42.1512 41.1923 44.4612 36.829C41.4325 40.8843 38.1985 44.4777 34.7592 47.609C31.3712 50.7403 27.9318 53.076 24.4412 54.616C22.9525 55.2833 21.3355 55.7967 19.5902 56.156C17.8962 56.5667 16.1765 56.772 14.4312 56.772C12.6858 56.772 10.9918 56.541 9.34917 56.079C7.75784 55.617 6.3205 54.8983 5.03717 53.923C3.3945 52.5883 2.2395 50.92 1.57217 48.918C0.904835 46.8647 0.571168 44.76 0.571168 42.604C0.571168 41.4233 0.648168 40.2683 0.802168 39.139C1.0075 37.9583 1.21283 36.8547 1.41817 35.828C2.2395 32.4913 3.57417 29.206 5.42217 25.972C7.27017 22.738 9.50317 19.6837 12.1212 16.809C14.7392 13.883 17.6652 11.3163 20.8992 9.109C24.6465 6.54233 28.5992 4.51466 32.7572 3.026C36.9665 1.53733 41.3298 0.792997 45.8472 0.792997C47.1305 0.792997 48.3625 0.869997 49.5432 1.024C50.7752 1.178 51.8788 1.43466 52.8542 1.794C54.4968 2.35866 55.6775 3.12866 56.3962 4.104C57.1148 5.07933 57.4742 6.15733 57.4742 7.338C57.4742 9.23733 56.6785 11.1367 55.0872 13.036C53.3418 15.0893 51.2115 16.5267 48.6962 17.348C46.2322 18.118 43.9992 18.503 41.9972 18.503C41.5352 18.503 41.0988 18.503 40.6882 18.503C40.3288 18.4517 39.9695 18.4003 39.6102 18.349C39.0968 18.2977 38.8402 18.118 38.8402 17.81C38.8402 17.4507 39.1482 17.3223 39.7642 17.425C40.1235 17.4763 40.5085 17.5277 40.9192 17.579C41.3298 17.579 41.7405 17.579 42.1512 17.579C44.0505 17.579 46.0525 17.194 48.1572 16.424C50.3132 15.6027 52.2382 14.114 53.9322 11.958C54.8048 10.8287 55.2412 9.59666 55.2412 8.262C55.2412 7.338 54.9845 6.46533 54.4712 5.644C54.0092 4.82266 53.1878 4.15533 52.0072 3.642C50.2618 2.82066 48.1572 2.46133 45.6932 2.564C42.3565 2.66667 38.9942 3.38533 35.6062 4.72C32.2695 6.00333 29.0612 7.69733 25.9812 9.802C22.9012 11.9067 20.0778 14.2937 17.5112 16.963C14.9445 19.581 12.7885 22.276 11.0432 25.048C10.2218 26.3827 9.37483 28.1023 8.50217 30.207C7.68083 32.2603 6.96217 34.4933 6.34617 36.906C5.7815 39.2673 5.49917 41.5773 5.49917 43.836C5.49917 46.454 6.0125 48.7897 7.03917 50.843C8.06583 52.8963 9.88817 54.2823 12.5062 55.001C13.1735 55.2063 14.0205 55.309 15.0472 55.309C16.3305 55.309 17.7422 55.1037 19.2822 54.693C20.8735 54.3337 22.5162 53.7433 24.2102 52.922C26.9822 51.5873 29.7285 49.7907 32.4492 47.532C35.2212 45.222 37.8392 42.6553 40.3032 39.832C42.7672 37.0087 44.8975 34.1597 46.6942 31.285C47.7208 29.6937 48.5165 28.898 49.0812 28.898C50.6212 26.6393 52.2382 24.6117 53.9322 22.815C55.6775 21.0183 57.5255 19.6067 59.4762 18.58C61.1188 17.7587 62.7358 17.348 64.3272 17.348C65.0458 17.348 65.7388 17.425 66.4062 17.579C66.6628 17.6303 66.7398 17.7843 66.6372 18.041C66.5345 18.2463 66.3805 18.3233 66.1752 18.272C65.7132 18.118 65.2255 18.041 64.7122 18.041C63.4802 18.041 62.1455 18.4773 60.7082 19.35C59.2708 20.2227 57.8335 21.5317 56.3962 23.277C54.1375 25.9463 52.1612 28.898 50.4672 32.132C48.8245 35.3147 47.2845 38.677 45.8472 42.219C44.4612 45.7097 42.9725 49.226 41.3812 52.768C39.8412 56.2587 38.0188 59.6467 35.9142 62.932C34.0148 65.858 31.8588 68.476 29.4462 70.786C27.0335 73.096 24.3128 74.8413 21.2842 76.022C19.5388 76.6893 17.5368 77.023 15.2782 77.023C14.3542 77.023 13.4558 76.946 12.5832 76.792C11.7618 76.638 11.0688 76.407 10.5042 76.099ZM60.0982 54.462C58.5069 54.462 57.3519 54 56.6332 53.076C55.9659 52.152 55.6322 51.0227 55.6322 49.688C55.6322 47.994 55.9659 46.146 56.6332 44.144C57.3519 42.142 58.1732 40.2427 59.0972 38.446C60.0212 36.598 60.7655 35.1607 61.3302 34.134C62.4595 32.2347 63.5889 31.054 64.7182 30.592C65.8989 30.13 67.3362 29.899 69.0302 29.899C68.5169 30.053 67.8495 30.669 67.0282 31.747C66.2069 32.7737 65.3342 34.057 64.4102 35.597C63.5375 37.137 62.6905 38.8053 61.8692 40.602C61.0992 42.3473 60.4575 44.067 59.9442 45.761C59.4822 47.4037 59.2512 48.8153 59.2512 49.996C59.2512 50.8687 59.4052 51.5873 59.7132 52.152C60.0725 52.7167 60.6115 52.999 61.3302 52.999C61.9462 52.999 62.6649 52.768 63.4862 52.306C64.3075 51.7927 65.0519 51.1767 65.7192 50.458C67.9779 47.9427 69.8002 45.1963 71.1862 42.219C72.6235 39.1903 74.2149 36.1873 75.9602 33.21C77.0895 31.3107 78.2189 30.13 79.3482 29.668C80.5289 29.206 81.9662 28.975 83.6602 28.975C83.1469 29.129 82.4539 29.7707 81.5812 30.9C80.7085 31.978 79.7845 33.3383 78.8092 34.981C77.8852 36.6237 77.0125 38.3947 76.1912 40.294C75.3699 42.142 74.6769 43.9387 74.1122 45.684C73.5989 47.4293 73.3422 48.918 73.3422 50.15C73.3422 50.9713 73.4962 51.6643 73.8042 52.229C74.1635 52.7423 74.6769 52.999 75.3442 52.999C75.9602 52.999 76.6789 52.7423 77.5002 52.229C78.3215 51.7157 79.0659 51.1253 79.7332 50.458C80.9139 49.1747 81.9919 47.763 82.9672 46.223C83.9425 44.683 84.9179 43.0403 85.8932 41.295C86.0472 41.0897 86.1755 40.987 86.2782 40.987C86.4835 40.987 86.5862 41.141 86.5862 41.449C86.5862 41.7057 86.5349 41.911 86.4322 42.065C85.5082 43.759 84.5329 45.453 83.5062 47.147C82.4795 48.841 81.2219 50.4323 79.7332 51.921C78.9119 52.7423 77.9365 53.4353 76.8072 54C75.7292 54.5133 74.6512 54.6673 73.5732 54.462C72.1359 54.2053 71.1092 53.6407 70.4932 52.768C69.8772 51.844 69.5692 50.7403 69.5692 49.457C69.5692 48.4303 69.7232 47.3523 70.0312 46.223C69.4152 47.1983 68.7479 48.1737 68.0292 49.149C67.3619 50.1243 66.5919 51.0483 65.7192 51.921C65.0005 52.6397 64.1279 53.2557 63.1012 53.769C62.1259 54.231 61.1249 54.462 60.0982 54.462ZM87.5373 54.616C86.4593 54.616 85.4583 54.4107 84.5343 54C83.6616 53.538 82.9429 52.768 82.3783 51.69C81.9676 50.766 81.7623 49.765 81.7623 48.687C81.7623 47.5577 81.9676 46.5053 82.3783 45.53C82.7889 44.6573 83.2509 43.8873 83.7643 43.22C84.2776 42.5527 84.8423 42.1677 85.4583 42.065C85.9203 41.0383 86.6133 39.678 87.5373 37.984C88.5126 36.29 89.5906 34.596 90.7713 32.902C92.0033 31.208 93.1583 29.8477 94.2363 28.821C94.4929 28.5643 94.9293 28.1537 95.5453 27.589C96.2126 26.973 96.9569 26.3827 97.7783 25.818C98.6509 25.2533 99.4466 24.9197 100.165 24.817C100.319 24.7657 100.525 24.74 100.781 24.74C101.397 24.74 101.859 24.894 102.167 25.202C102.475 25.51 102.629 25.8693 102.629 26.28C102.629 26.6907 102.475 27.1013 102.167 27.512C101.859 27.9227 101.372 28.2563 100.704 28.513C100.448 28.5643 100.063 28.6413 99.5493 28.744C99.0873 28.8467 98.3943 28.898 97.4703 28.898C97.1109 29.4113 96.9313 30.13 96.9313 31.054C96.9313 32.0807 97.0853 33.2357 97.3933 34.519C97.7526 35.8023 98.0863 37.06 98.3943 38.292C98.7536 39.4727 98.9333 40.4737 98.9333 41.295C99.0359 43.1943 98.7279 45.1193 98.0093 47.07C97.3419 48.9693 96.2639 50.5863 94.7753 51.921L93.6973 52.691C93.8513 52.7423 94.0053 52.7937 94.1593 52.845C94.3133 52.845 94.4673 52.845 94.6213 52.845C95.4939 52.845 96.4693 52.5883 97.5473 52.075C98.6253 51.5103 99.5749 50.8173 100.396 49.996C101.628 48.8153 102.681 47.5577 103.553 46.223C104.477 44.8883 105.324 43.5023 106.094 42.065C106.146 41.8597 106.274 41.757 106.479 41.757C106.736 41.757 106.864 41.9623 106.864 42.373C106.864 42.5783 106.787 42.8093 106.633 43.066C105.863 44.5033 104.914 46.0177 103.784 47.609C102.706 49.149 101.577 50.458 100.396 51.536C99.4723 52.3573 98.4713 52.9733 97.3933 53.384C96.3666 53.7433 95.4939 53.923 94.7753 53.923C94.2619 53.923 93.8513 53.8717 93.5433 53.769C93.2353 53.6663 92.9529 53.5123 92.6963 53.307C91.9776 53.6663 91.1563 53.9743 90.2323 54.231C89.3596 54.4877 88.4613 54.616 87.5373 54.616ZM90.4633 52.614C91.4899 51.8953 92.2856 50.9713 92.8503 49.842C93.4663 48.7127 93.9283 47.5063 94.2363 46.223C94.6469 44.683 94.8779 43.0917 94.9293 41.449C95.0319 39.8063 95.0833 38.3177 95.0833 36.983V34.288C95.0833 33.21 95.2116 32.1063 95.4683 30.977C95.7763 29.8477 96.0843 29.1547 96.3923 28.898C95.6223 29.206 94.7753 29.899 93.8513 30.977C92.9273 32.0037 92.0033 33.2357 91.0793 34.673C90.1553 36.059 89.3083 37.4193 88.5383 38.754C87.8196 40.0887 87.2549 41.1923 86.8443 42.065C87.8196 42.0137 88.4869 42.296 88.8463 42.912C89.2056 43.4767 89.3083 43.8873 89.1543 44.144C88.7436 44.0413 88.4613 43.99 88.3073 43.99C87.5373 43.99 86.8186 44.2723 86.1513 44.837C85.4839 45.3503 84.9193 46.1203 84.4573 47.147C83.9953 48.1223 83.7643 49.072 83.7643 49.996C83.7643 51.228 84.1236 52.1263 84.8423 52.691C85.5609 53.2557 86.4079 53.538 87.3833 53.538C88.5126 53.538 89.5393 53.23 90.4633 52.614ZM109.142 54.539C107.858 54.539 106.703 54.1797 105.677 53.461C104.701 52.691 104.214 51.459 104.214 49.765C104.214 47.9683 104.65 45.992 105.523 43.836C106.395 41.68 107.217 39.755 107.987 38.061C108.397 37.2397 108.936 36.136 109.604 34.75C110.322 33.3127 111.092 31.901 111.914 30.515H108.295C108.141 30.515 108.064 30.3867 108.064 30.13C108.064 29.9247 108.141 29.7193 108.295 29.514C108.449 29.2573 108.628 29.129 108.834 29.129C110.271 29.129 111.349 29.0007 112.068 28.744C112.786 28.4873 113.402 28.128 113.916 27.666C114.737 26.9473 115.533 26.0233 116.303 24.894C117.124 23.7647 117.92 22.7893 118.69 21.968C119.254 21.2493 119.947 20.7103 120.769 20.351C121.641 19.9917 122.206 19.8633 122.463 19.966C122.206 20.3253 121.795 20.9413 121.231 21.814C120.666 22.6867 120.076 23.6363 119.46 24.663C118.844 25.6897 118.279 26.6393 117.766 27.512C117.252 28.3847 116.919 28.975 116.765 29.283H121.847C122.001 29.283 122.078 29.3343 122.078 29.437C122.078 29.6423 121.949 29.8733 121.693 30.13C121.487 30.3867 121.282 30.515 121.077 30.515H116.072C115.148 32.1063 114.044 34.1853 112.761 36.752C111.529 39.2673 110.425 41.7057 109.45 44.067C109.244 44.529 108.885 45.453 108.372 46.839C107.91 48.225 107.679 49.5083 107.679 50.689C107.679 51.459 107.833 52.1007 108.141 52.614C108.5 53.1273 109.09 53.384 109.912 53.384C110.784 53.384 111.734 53.076 112.761 52.46C113.787 51.7927 114.583 51.1253 115.148 50.458C116.328 49.1747 117.406 47.763 118.382 46.223C119.357 44.683 120.332 43.0403 121.308 41.295C121.462 41.0897 121.616 40.987 121.77 40.987C121.975 40.987 122.078 41.141 122.078 41.449C122.078 41.7057 122.026 41.911 121.924 42.065C121 43.759 119.999 45.453 118.921 47.147C117.894 48.841 116.636 50.4323 115.148 51.921C114.48 52.5883 113.582 53.2043 112.453 53.769C111.323 54.2823 110.22 54.539 109.142 54.539ZM127.112 55.54C125.162 55.54 123.468 54.924 122.03 53.692C120.644 52.4087 119.951 50.458 119.951 47.84C119.951 46.1973 120.234 44.5033 120.798 42.758C121.414 40.9613 122.082 39.37 122.8 37.984C124.135 35.4687 125.803 33.287 127.805 31.439C129.859 29.5397 132.297 28.59 135.12 28.59C137.841 28.59 139.74 29.3343 140.818 30.823C141.896 32.3117 142.435 34.134 142.435 36.29C142.435 37.1627 142.358 38.061 142.204 38.985C141.794 41.5003 140.947 43.9387 139.663 46.3C140.023 46.8133 140.485 47.2497 141.049 47.609C141.665 47.917 142.333 48.071 143.051 48.071C144.283 48.071 145.336 47.7373 146.208 47.07C147.081 46.4027 147.825 45.5813 148.441 44.606C149.109 43.5793 149.673 42.6297 150.135 41.757C150.443 41.1923 150.726 40.91 150.982 40.91C151.136 40.91 151.213 41.0127 151.213 41.218C151.213 41.4233 151.059 41.8853 150.751 42.604C149.879 44.3493 148.852 45.8637 147.671 47.147C146.491 48.4303 144.951 49.072 143.051 49.072C141.306 49.072 139.971 48.456 139.047 47.224C137.61 49.5853 135.865 51.5617 133.811 53.153C131.758 54.7443 129.525 55.54 127.112 55.54ZM127.266 54.616C129.782 54.616 132.271 53.384 134.735 50.92C135.454 50.2013 136.096 49.457 136.66 48.687C137.276 47.8657 137.815 47.0443 138.277 46.223C137.61 45.453 137.122 44.6317 136.814 43.759C136.558 42.835 136.429 41.9623 136.429 41.141C136.429 39.8577 136.66 38.7283 137.122 37.753C137.584 36.7263 138.226 36.213 139.047 36.213C139.458 36.213 139.843 36.4183 140.202 36.829C140.613 37.2397 140.87 37.8813 140.972 38.754C141.126 38.0353 141.203 37.2653 141.203 36.444C141.203 34.4933 140.844 32.9533 140.125 31.824C139.407 30.6433 138.2 30.053 136.506 30.053C135.48 30.053 134.427 30.4637 133.349 31.285C132.271 32.055 131.245 33.0047 130.269 34.134C129.345 35.2633 128.524 36.4183 127.805 37.599C127.087 38.7797 126.548 39.755 126.188 40.525C125.316 42.4243 124.674 44.1183 124.263 45.607C123.904 47.0957 123.724 48.4047 123.724 49.534C123.724 51.1767 124.058 52.4343 124.725 53.307C125.444 54.1797 126.291 54.616 127.266 54.616Z" fill="black"/>
</svg>
